<?xml version="1.0" standalone="no"?>
<svg xmlns:xlink="http://www.w3.org/1999/xlink" id="wave" style="transform:rotate(0deg); transition: 0.3s" viewBox="0 0 1440 490" version="1.1" xmlns="http://www.w3.org/2000/svg"><defs><linearGradient id="sw-gradient-0" x1="0" x2="0" y1="1" y2="0"><stop stop-color="rgba(106, 96, 110, 1)" offset="0%"/><stop stop-color="rgba(181, 160, 159, 1)" offset="100%"/></linearGradient></defs><path style="transform:translate(0, 0px); opacity:1" fill="url(#sw-gradient-0)" d="M0,49L48,65.3C96,82,192,114,288,130.7C384,147,480,147,576,196C672,245,768,343,864,334.8C960,327,1056,212,1152,147C1248,82,1344,65,1440,106.2C1536,147,1632,245,1728,236.8C1824,229,1920,114,2016,57.2C2112,0,2208,0,2304,57.2C2400,114,2496,229,2592,245C2688,261,2784,180,2880,138.8C2976,98,3072,98,3168,98C3264,98,3360,98,3456,81.7C3552,65,3648,33,3744,89.8C3840,147,3936,294,4032,359.3C4128,425,4224,408,4320,334.8C4416,261,4512,131,4608,106.2C4704,82,4800,163,4896,220.5C4992,278,5088,310,5184,343C5280,376,5376,408,5472,416.5C5568,425,5664,408,5760,375.7C5856,343,5952,294,6048,302.2C6144,310,6240,376,6336,343C6432,310,6528,180,6624,147C6720,114,6816,180,6864,212.3L6912,245L6912,490L6864,490C6816,490,6720,490,6624,490C6528,490,6432,490,6336,490C6240,490,6144,490,6048,490C5952,490,5856,490,5760,490C5664,490,5568,490,5472,490C5376,490,5280,490,5184,490C5088,490,4992,490,4896,490C4800,490,4704,490,4608,490C4512,490,4416,490,4320,490C4224,490,4128,490,4032,490C3936,490,3840,490,3744,490C3648,490,3552,490,3456,490C3360,490,3264,490,3168,490C3072,490,2976,490,2880,490C2784,490,2688,490,2592,490C2496,490,2400,490,2304,490C2208,490,2112,490,2016,490C1920,490,1824,490,1728,490C1632,490,1536,490,1440,490C1344,490,1248,490,1152,490C1056,490,960,490,864,490C768,490,672,490,576,490C480,490,384,490,288,490C192,490,96,490,48,490L0,490Z"/><defs><linearGradient id="sw-gradient-1" x1="0" x2="0" y1="1" y2="0"><stop stop-color="rgba(106, 96, 110, 1)" offset="0%"/><stop stop-color="rgba(181, 160, 159, 1)" offset="100%"/></linearGradient></defs><path style="transform:translate(0, 50px); opacity:0.9" fill="url(#sw-gradient-1)" d="M0,294L48,253.2C96,212,192,131,288,138.8C384,147,480,245,576,245C672,245,768,147,864,98C960,49,1056,49,1152,65.3C1248,82,1344,114,1440,147C1536,180,1632,212,1728,212.3C1824,212,1920,180,2016,138.8C2112,98,2208,49,2304,40.8C2400,33,2496,65,2592,122.5C2688,180,2784,261,2880,285.8C2976,310,3072,278,3168,269.5C3264,261,3360,278,3456,310.3C3552,343,3648,392,3744,367.5C3840,343,3936,245,4032,196C4128,147,4224,147,4320,138.8C4416,131,4512,114,4608,106.2C4704,98,4800,98,4896,81.7C4992,65,5088,33,5184,32.7C5280,33,5376,65,5472,106.2C5568,147,5664,196,5760,253.2C5856,310,5952,376,6048,392C6144,408,6240,376,6336,359.3C6432,343,6528,343,6624,302.2C6720,261,6816,180,6864,138.8L6912,98L6912,490L6864,490C6816,490,6720,490,6624,490C6528,490,6432,490,6336,490C6240,490,6144,490,6048,490C5952,490,5856,490,5760,490C5664,490,5568,490,5472,490C5376,490,5280,490,5184,490C5088,490,4992,490,4896,490C4800,490,4704,490,4608,490C4512,490,4416,490,4320,490C4224,490,4128,490,4032,490C3936,490,3840,490,3744,490C3648,490,3552,490,3456,490C3360,490,3264,490,3168,490C3072,490,2976,490,2880,490C2784,490,2688,490,2592,490C2496,490,2400,490,2304,490C2208,490,2112,490,2016,490C1920,490,1824,490,1728,490C1632,490,1536,490,1440,490C1344,490,1248,490,1152,490C1056,490,960,490,864,490C768,490,672,490,576,490C480,490,384,490,288,490C192,490,96,490,48,490L0,490Z"/></svg>